# xmcd
#
# Track frame offsets:
#	150
#	12681
#	29585
#	47237
#	64417
#	76994
#	93804
#	111431
#
# Disc length: 1716 seconds
#
# Revision: 1
# Processed by: cddbd v1.5.1PL2 Copyright (c) Steve Scherf et al.
# Submitted via: audiograbber 1.83.01
#
DISCID=6b06b208
DTITLE=Various Artist - SM9142
DYEAR=1900
DGENRE=Karaoke
TTITLE0=LeAnn Rimes - Blue
TTITLE1=LeAnn Rimes - One Way Ticket
TTITLE2=Shania Twain - If You're Not In It For Love
TTITLE3=Faith Hill and Tim McGraw - It's Your Love
TTITLE4=LeAnn Rimes - Blue (vocals)
TTITLE5=LeAnn Rimes - One Way Ticket (vocals)
TTITLE6=Shania Twain - If Your Not In It For Love (vocals)
TTITLE7=Faith Hill and Tim McGraw - It's Your Love (vocals)
EXTD=
EXTT0=
EXTT1=
EXTT2=
EXTT3=
EXTT4=
EXTT5=
EXTT6=
EXTT7=
PLAYORDER=
